<?xml version="1.0" standalone="no"?><svg xmlns="http://www.w3.org/2000/svg" viewBox="0 0 1440 320"><path fill="#0099ff" fill-opacity="1" d="M0,224L30,234.7C60,245,120,267,180,272C240,277,300,267,360,234.7C420,203,480,149,540,154.7C600,160,660,224,720,213.3C780,203,840,117,900,74.7C960,32,1020,32,1080,69.3C1140,107,1200,181,1260,197.3C1320,213,1380,171,1410,149.3L1440,128L1440,0L1410,0C1380,0,1320,0,1260,0C1200,0,1140,0,1080,0C1020,0,960,0,900,0C840,0,780,0,720,0C660,0,600,0,540,0C480,0,420,0,360,0C300,0,240,0,180,0C120,0,60,0,30,0L0,0Z"></path></svg>